<?xml version="1.0" encoding="UTF-8" standalone="no"?>
<!-- Created with Inkscape (http://www.inkscape.org/) -->

<svg
   width="141.66817mm"
   height="155.41425mm"
   viewBox="0 0 141.66817 155.41425"
   version="1.1"
   id="svg5"
   xml:space="preserve"
   xmlns:inkscape="http://www.inkscape.org/namespaces/inkscape"
   xmlns:sodipodi="http://sodipodi.sourceforge.net/DTD/sodipodi-0.dtd"
   xmlns="http://www.w3.org/2000/svg"
   xmlns:svg="http://www.w3.org/2000/svg"><sodipodi:namedview
     id="namedview7"
     pagecolor="#ffffff"
     bordercolor="#000000"
     borderopacity="0.25"
     inkscape:showpageshadow="2"
     inkscape:pageopacity="0.0"
     inkscape:pagecheckerboard="0"
     inkscape:deskcolor="#d1d1d1"
     inkscape:document-units="mm"
     showgrid="false" /><defs
     id="defs2" /><g
     inkscape:label="Ebene 1"
     inkscape:groupmode="layer"
     id="layer1"
     transform="translate(-17.25915,-78.343733)"><path
       fill="#002f48"
       d="m 123.6313,114.86927 c 0.73036,0.64767 16.32424,-0.30593 19.12717,0.0937 2.16766,0.30592 4.27054,1.76113 4.99952,4.01009 l 11.15385,98.75159 c 0.29489,7.00319 -3.65043,13.23881 -10.06382,15.33481 -39.45048,1.40284 -79.153143,0.18328 -118.691812,0.61874 -7.030749,-0.63527 -11.689896,-5.73539 -12.897059,-12.8378 2.673396,-33.54971 7.309115,-67.00986 10.529592,-100.55407 0.429948,-2.11942 1.066599,-3.7455 3.045463,-4.67017 3.686253,-1.7253 20.881413,0.11852 21.647603,-0.68901 0.69453,-24.338917 22.14783,-41.640187 44.95023,-35.24471 15.363743,4.310503 25.021043,18.961806 26.199263,35.19234 z m -10.20575,-1.78456 c -2.33715,-33.3251 -49.007173,-33.602087 -50.791743,0 z m 8.75192,77.0034 c -1.08452,-1.61369 -2.93384,-1.5186 -4.65226,-1.59026 -9.49882,-0.38172 -18.903933,5.45979 -29.026993,6.31968 -9.01651,0.76481 -18.75097,-3.43958 -27.32512,-3.70416 -3.51538,0.31143 -2.63206,3.5388 -1.53652,5.83047 0.64768,1.35324 1.56683,2.55489 2.6858,3.56223 4.12171,3.69866 16.63568,14.11525 26.29297,13.63294 5.71886,-0.2825 14.175883,-2.93247 20.051833,-6.78409 7.52685,-4.92924 11.86078,-11.27097 11.86078,-11.27097 0,0 3.23288,-3.62838 1.64951,-5.99584 z M 45.043157,150.50947 c 0.1943,0.87643 2.47358,3.41478 3.22185,4.2981 3.50986,4.15203 9.97011,12.04267 13.74455,15.40509 3.09783,2.76296 4.64675,1.15479 7.02525,-1.27193 5.0822,-5.18832 9.27557,-11.33574 14.55208,-16.3642 2.33715,-3.48093 -1.1548,-7.32014 -4.7942,-5.22966 l -13.75558,15.4106 -1.10794,-0.64768 -13.95126,-15.63522 c -2.70784,-1.41938 -5.61688,0.94258 -4.93475,4.04041 z m 91.855893,-1.57923 c -0.55948,-2.52043 -4.31601,-3.19154 -6.07163,-1.40147 -1.93753,1.58475 -12.55531,15.01097 -13.55577,15.17633 -0.60633,0.0992 -1.31878,-0.88332 -1.70739,-1.28984 -4.38216,-4.55855 -8.12077,-9.85297 -12.59113,-14.34537 -5.683033,-1.13689 -6.755153,2.46669 -3.509873,6.6008 3.781343,4.81762 9.804753,11.50799 14.109743,15.92461 3.20945,3.29213 4.61781,2.5852 7.53236,-0.44235 5.19382,-5.38262 9.69312,-11.50662 15.00545,-16.79553 0.88884,-0.95912 1.07763,-2.16628 0.79513,-3.43269 z m 0,0"
       fill-opacity="1"
       fill-rule="nonzero"
       id="path143"
       inkscape:export-filename="path143.svg"
       inkscape:export-xdpi="96"
       inkscape:export-ydpi="96"
       style="fill:#01579b;fill-opacity:1;stroke-width:0.352778" /></g></svg>
